<?xml version="1.0" encoding="iso-8859-1" ?>
<svg version="1.1" xmlns="http://www.w3.org/2000/svg" xmlns:xlink="http://www.w3.org/1999/xlink" 
    viewBox="0 0 1200 800" width="1200" height="800">
    
    
    <!-- ITEM 0 -->
    <g>
        <defs>
            <clipPath id="clip-path-id-viewbox-item-0">
                <rect x="0.0" y="0.0" width="295.3798828125" height="108.0"/>
            </clipPath>
        </defs>
        <g transform="translate(373.0 311.0) rotate(0.0 147.5 54.0) scale(0.9987139177899222 1.0)">
            <g clip-path="url(#clip-path-id-viewbox-item-0)" transform="translate(-0.0 -0.0)">
                <path fill="black" stroke="black" d="M3.96 108.30Q2.22 108.30 2.22 107.64L2.22 107.64Q2.22 107.22 2.70 106.98Q3.18 106.74 4.20 106.56L4.20 106.56Q6.54 106.14 7.59 105.15Q8.64 104.16 8.64 102.06L8.64 102.06L8.64 75.06Q8.64 72.96 7.77 72.03Q6.90 71.10 4.62 70.68L4.62 70.68Q2.64 70.32 2.64 69.48L2.64 69.48Q2.64 68.82 4.38 68.82L4.38 68.82Q6.66 68.82 9.90 68.94L9.90 68.94L15 69L23.22 68.94L28.32 68.82Q29.34 68.82 29.40 69.36L29.40 69.36Q29.52 69.84 29.91 72Q30.30 74.16 30.30 75.54L30.30 75.54Q30.30 76.44 29.46 76.44L29.46 76.44Q29.16 76.44 29.04 76.32Q28.92 76.20 28.80 75.84L28.80 75.84Q28.68 75.54 28.32 74.28Q27.96 73.02 27.48 72.54L27.48 72.54Q26.04 70.92 23.46 70.92L23.46 70.92L15.60 70.92Q15 70.92 14.22 71.49Q13.44 72.06 13.44 72.84L13.44 72.84L13.44 85.56Q13.44 86.10 13.77 86.49Q14.10 86.88 14.52 86.88L14.52 86.88L20.46 86.88Q22.14 86.88 22.80 86.28Q23.46 85.68 23.94 83.94L23.94 83.94Q24.30 82.62 25.02 82.62L25.02 82.62Q25.26 82.62 25.53 82.89Q25.80 83.16 25.80 83.58L25.80 83.58L25.74 85.14L25.62 87.78L25.68 90.96L25.74 92.40Q25.74 93.42 25.20 93.42L25.20 93.42Q24.30 93.42 23.82 91.50L23.82 91.50Q23.46 90.06 22.83 89.43Q22.20 88.80 21.06 88.80L21.06 88.80L15.48 88.80Q14.34 88.80 13.89 89.10Q13.44 89.40 13.44 90.36L13.44 90.36L13.44 101.88Q13.44 104.10 14.37 105Q15.30 105.90 17.40 105.90L17.40 105.90L21.84 105.90Q23.82 105.90 25.11 105.66Q26.40 105.42 27.30 104.88L27.30 104.88Q28.20 104.28 28.95 103.23Q29.70 102.18 30.72 100.26L30.72 100.26Q31.14 99.48 31.56 99.48L31.56 99.48Q32.34 99.48 32.34 100.32L32.34 100.32Q32.34 101.10 31.68 103.59Q31.02 106.08 30.48 107.28L30.48 107.28Q30.42 107.40 30.30 107.70Q30.18 108 30.03 108.15Q29.88 108.30 29.64 108.30L29.64 108.30Q28.44 108.30 19.08 108.12L19.08 108.12Q14.94 107.94 10.86 107.94L10.86 107.94Q9.18 107.94 7.74 108.12L7.74 108.12Q4.68 108.30 3.96 108.30L3.96 108.30ZM35.64 108.24Q34.44 108.24 34.44 107.70L34.44 107.70Q34.44 107.28 34.80 107.04Q35.16 106.80 35.82 106.62L35.82 106.62Q36.84 106.32 37.74 105.57Q38.64 104.82 39.84 103.20L39.84 103.20L44.46 96.78Q44.82 96.36 44.82 96L44.82 96Q44.82 95.70 44.58 95.40L44.58 95.40L39.66 87.90Q38.94 86.70 38.37 86.16Q37.80 85.62 36.90 85.38L36.90 85.38Q36.24 85.20 35.88 84.96Q35.52 84.72 35.52 84.30L35.52 84.30Q35.52 83.76 36.72 83.76L36.72 83.76Q37.98 83.76 38.94 83.88L38.94 83.88Q40.14 84 41.64 84L41.64 84L43.20 83.94Q43.62 83.88 44.70 83.88L44.70 83.88L44.88 83.88Q46.08 83.88 46.08 84.42L46.08 84.42Q46.08 84.72 45.81 84.90Q45.54 85.08 45 85.26L45 85.26Q44.40 85.44 44.07 85.65Q43.74 85.86 43.74 86.28L43.74 86.28Q43.74 86.94 44.52 88.20L44.52 88.20L47.28 92.34Q47.52 92.76 47.82 92.34L47.82 92.34L50.88 87.72Q51.36 87.06 51.36 86.40L51.36 86.40Q51.36 85.68 50.58 85.44L50.58 85.44Q49.86 85.20 49.53 84.99Q49.20 84.78 49.20 84.36L49.20 84.36Q49.20 83.82 50.40 83.82L50.40 83.82Q50.70 83.82 51.81 83.91Q52.92 84 53.58 84L53.58 84Q54.90 84 55.92 83.85Q56.94 83.70 57.36 83.70L57.36 83.70Q58.56 83.70 58.56 84.24L58.56 84.24Q58.56 84.66 58.23 84.87Q57.90 85.08 57.18 85.32L57.18 85.32Q54.30 86.16 52.92 88.14L52.92 88.14L49.14 93.84Q48.90 94.20 49.20 94.62L49.20 94.62L55.02 104.10Q55.74 105.24 56.40 105.78Q57.06 106.32 57.96 106.62L57.96 106.62Q58.62 106.80 58.98 107.04Q59.34 107.28 59.34 107.70L59.34 107.70Q59.34 108.24 58.14 108.24L58.14 108.24Q57 108.24 55.92 108.12L55.92 108.12Q54.72 108 53.10 108L53.10 108L50.88 108.06Q50.10 108.12 48.72 108.12L48.72 108.12Q47.34 108.12 47.34 107.52L47.34 107.52Q47.34 107.04 47.70 106.77Q48.06 106.50 48.84 106.32L48.84 106.32Q50.52 105.84 50.52 104.88L50.52 104.88Q50.52 104.40 50.16 103.80L50.16 103.80L46.62 98.04Q46.56 97.98 46.44 97.98Q46.32 97.98 46.26 98.04L46.26 98.04L42.30 103.98Q42 104.40 42 105.12L42 105.12Q42 105.54 42.21 105.93Q42.42 106.32 42.84 106.44L42.84 106.44Q43.56 106.68 43.89 106.89Q44.22 107.10 44.22 107.52L44.22 107.52Q44.22 108.06 43.02 108.06L43.02 108.06Q42.66 108.06 41.73 108Q40.80 107.94 39.66 107.94L39.66 107.94Q38.88 107.94 36.90 108.12L36.90 108.12Q36.06 108.24 35.64 108.24L35.64 108.24ZM65.76 108.84Q64.74 108.84 63.60 108.03Q62.46 107.22 61.71 105.99Q60.96 104.76 60.96 103.68L60.96 103.68Q60.96 101.82 61.95 100.74Q62.94 99.66 65.22 98.70L65.22 98.70L71.34 96.18Q72.48 95.70 72.72 95.34Q72.96 94.98 73.02 93.78L73.02 93.78L73.14 89.94Q73.20 88.32 72.24 87.21Q71.28 86.10 69.60 86.10L69.60 86.10Q68.70 86.10 67.80 86.40Q66.90 86.70 66.30 87.18L66.30 87.18Q65.70 87.60 65.70 88.92L65.70 88.92L65.76 90Q65.76 90.48 64.23 91.29Q62.70 92.10 61.80 92.10L61.80 92.10Q61.50 92.10 61.32 91.95Q61.14 91.80 61.14 91.56L61.14 91.56Q61.14 90.60 61.77 89.49Q62.40 88.38 63.54 87.42L63.54 87.42Q65.58 85.56 68.13 84.36Q70.68 83.16 72.48 83.16L72.48 83.16Q74.64 83.16 76.05 84.69Q77.46 86.22 77.40 88.50L77.40 88.50L77.10 102.90Q77.04 104.16 77.64 104.94Q78.24 105.72 79.26 105.72L79.26 105.72Q80.76 105.72 81.48 105.06L81.48 105.06Q81.78 104.76 81.96 104.76L81.96 104.76Q82.26 104.76 82.44 104.94Q82.62 105.12 82.62 105.42L82.62 105.42Q82.62 105.66 82.44 106.05Q82.26 106.44 81.96 106.74L81.96 106.74Q81 107.70 79.89 108.27Q78.78 108.84 77.82 108.84L77.82 108.84Q75.06 108.84 73.44 105.72L73.44 105.72L73.26 105.72Q71.28 107.34 69.48 108.09Q67.68 108.84 65.76 108.84L65.76 108.84ZM68.58 105.96Q70.68 105.96 72.12 104.52L72.12 104.52Q72.48 104.16 72.66 103.62Q72.84 103.08 72.90 102.06L72.90 102.06L73.02 99.12L73.02 98.76Q73.02 98.28 72.90 98.07Q72.78 97.86 72.48 97.86L72.48 97.86Q72.12 97.86 71.28 98.16L71.28 98.16Q68.28 99.24 66.96 100.44Q65.64 101.64 65.64 102.78L65.64 102.78Q65.64 104.28 66.51 105.12Q67.38 105.96 68.58 105.96L68.58 105.96ZM85.32 108.18Q84.12 108.18 84.12 107.52L84.12 107.52Q84.12 107.16 84.45 106.98Q84.78 106.80 85.50 106.56L85.50 106.56Q86.82 106.14 87.45 105.75Q88.08 105.36 88.08 104.28L88.08 104.28L88.08 91.38Q88.08 89.46 87.63 88.38Q87.18 87.30 85.80 87.06L85.80 87.06Q85.26 86.94 85.26 86.28L85.26 86.28Q85.26 85.68 85.74 85.56L85.74 85.56Q87.36 85.14 88.32 84.69Q89.28 84.24 90.54 83.34L90.54 83.34L91.86 82.44Q91.92 82.44 92.07 82.32Q92.22 82.20 92.40 82.20L92.40 82.20Q92.52 82.20 92.64 82.32Q92.76 82.44 92.76 82.62L92.76 82.62L92.64 83.88Q92.58 84.36 92.52 85.05Q92.46 85.74 92.46 86.46L92.46 86.46Q92.46 87.06 92.58 87.18L92.58 87.18L92.70 87.18Q96.84 83.16 102.06 83.16L102.06 83.16Q104.28 83.16 105.72 84.12Q107.16 85.08 108.06 87.30L108.06 87.30L108.24 87.30Q112.92 83.16 118.02 83.16L118.02 83.16Q120.78 83.16 122.40 85.65Q124.02 88.14 124.02 91.50L124.02 91.50L124.02 104.28Q124.02 105.36 124.65 105.75Q125.28 106.14 126.60 106.56L126.60 106.56Q127.32 106.80 127.65 106.98Q127.98 107.16 127.98 107.52L127.98 107.52Q127.98 107.88 127.71 108.03Q127.44 108.18 126.78 108.18L126.78 108.18Q125.16 108.18 124.26 108L124.26 108Q123.06 107.88 122.04 107.88L122.04 107.88Q120.96 107.88 119.76 108L119.76 108Q118.68 108.18 117.06 108.18L117.06 108.18Q115.86 108.18 115.86 107.52L115.86 107.52Q115.86 107.10 116.19 106.92Q116.52 106.74 117.24 106.56L117.24 106.56Q118.50 106.26 119.16 105.81Q119.82 105.36 119.82 104.28L119.82 104.28L119.82 91.68Q119.82 89.46 118.38 87.72Q116.94 85.98 115.02 85.98L115.02 85.98Q111.84 85.98 109.80 87.60L109.80 87.60Q108.12 88.92 108.12 91.92L108.12 91.92L108.12 104.28Q108.12 105.36 108.84 105.81Q109.56 106.26 110.82 106.56L110.82 106.56Q112.20 106.86 112.20 107.52L112.20 107.52Q112.20 108.18 111 108.18L111 108.18Q109.38 108.18 108.36 108L108.36 108Q107.04 107.88 106.08 107.88L106.08 107.88Q105 107.88 103.80 108L103.80 108Q102.72 108.18 101.10 108.18L101.10 108.18Q99.90 108.18 99.90 107.52L99.90 107.52Q99.90 107.16 100.17 107.01Q100.44 106.86 100.77 106.74Q101.10 106.62 101.28 106.56L101.28 106.56Q102.66 106.14 103.29 105.75Q103.92 105.36 103.92 104.28L103.92 104.28L103.92 91.68Q103.92 89.46 102.48 87.72Q101.04 85.98 99.12 85.98L99.12 85.98Q95.94 85.98 93.90 87.60L93.90 87.60Q92.28 88.80 92.28 91.92L92.28 91.92L92.28 104.28Q92.28 105.36 92.91 105.75Q93.54 106.14 94.86 106.56L94.86 106.56Q95.04 106.62 95.43 106.74Q95.82 106.86 96.03 107.04Q96.24 107.22 96.24 107.52L96.24 107.52Q96.24 108.18 95.04 108.18L95.04 108.18Q93.48 108.18 92.46 108L92.46 108Q91.14 107.88 90.18 107.88L90.18 107.88Q89.22 107.88 87.90 108L87.90 108Q86.94 108.18 85.32 108.18L85.32 108.18ZM131.76 125.10Q130.50 125.10 130.50 124.56L130.50 124.56Q130.50 124.14 130.83 123.93Q131.16 123.72 131.88 123.48L131.88 123.48Q133.20 123.06 133.83 122.67Q134.46 122.28 134.46 121.20L134.46 121.20L134.46 90.78Q134.46 89.76 133.74 88.23Q133.02 86.70 131.70 86.40L131.70 86.40Q131.46 86.34 131.34 86.13Q131.22 85.92 131.22 85.62L131.22 85.62Q131.22 85.02 131.64 84.90L131.64 84.90Q134.28 84.30 136.26 83.49Q138.24 82.68 138.60 82.50L138.60 82.50L138.72 82.44Q138.84 82.44 138.96 82.62Q139.08 82.80 139.08 82.98L139.08 82.98L138.96 84.54Q138.78 85.62 138.78 86.58L138.78 86.58Q138.78 87.06 138.84 87.12L138.84 87.12Q139.50 86.46 141.15 85.53Q142.80 84.60 144.81 83.88Q146.82 83.16 148.56 83.16L148.56 83.16Q151.50 83.16 153.75 84.78Q156 86.40 157.20 89.01Q158.40 91.62 158.40 94.50L158.40 94.50Q158.40 98.04 156.60 101.37Q154.80 104.70 151.68 106.77Q148.56 108.84 144.90 108.84L144.90 108.84Q143.58 108.84 141.66 108.27Q139.74 107.70 138.90 106.92L138.90 106.92Q138.78 106.92 138.72 108.12Q138.66 109.32 138.66 109.98L138.66 109.98L138.66 121.20Q138.66 122.10 139.44 122.55Q140.22 123 141.03 123.21Q141.84 123.42 142.14 123.48L142.14 123.48Q142.86 123.72 143.19 123.93Q143.52 124.14 143.52 124.56L143.52 124.56Q143.52 125.10 142.20 125.10L142.20 125.10Q140.58 125.10 139.20 124.92L139.20 124.92Q137.64 124.80 136.56 124.80L136.56 124.80Q135.60 124.80 134.28 124.92L134.28 124.92Q133.32 125.10 131.76 125.10L131.76 125.10ZM145.80 106.98Q147.24 106.98 149.07 105.93Q150.90 104.88 152.25 102.48Q153.60 100.08 153.60 96.42L153.60 96.42Q153.60 90.36 150.99 88.11Q148.38 85.86 145.44 85.86L145.44 85.86Q144.12 85.86 142.56 86.43Q141 87 139.92 87.78Q138.84 88.56 138.84 88.98L138.84 88.98Q138.84 91.68 138.72 95.28L138.72 95.28Q138.66 96.48 138.66 98.04L138.66 98.04Q138.66 100.38 139.74 102.45Q140.82 104.52 142.50 105.75Q144.18 106.98 145.80 106.98L145.80 106.98ZM161.94 108.18Q160.74 108.18 160.74 107.64L160.74 107.64Q160.74 107.22 161.07 107.01Q161.40 106.80 162.12 106.56L162.12 106.56Q163.44 106.14 164.07 105.75Q164.70 105.36 164.70 104.28L164.70 104.28L164.70 74.04Q164.70 70.26 161.94 69.66L161.94 69.66Q161.70 69.60 161.58 69.39Q161.46 69.18 161.46 68.88L161.46 68.88Q161.46 68.28 161.88 68.16L161.88 68.16Q164.22 67.62 167.22 66.36L167.22 66.36L168.66 65.82Q168.90 65.70 169.02 65.70L169.02 65.70Q169.14 65.70 169.23 65.85Q169.32 66 169.32 66.12L169.32 66.12Q169.32 66.48 169.11 68.40Q168.90 70.32 168.90 74.28L168.90 74.28L168.90 104.28Q168.90 105.36 169.53 105.75Q170.16 106.14 171.48 106.56L171.48 106.56Q172.20 106.80 172.53 107.01Q172.86 107.22 172.86 107.64L172.86 107.64Q172.86 108.18 171.66 108.18L171.66 108.18Q170.10 108.18 169.08 108L169.08 108Q167.76 107.88 166.80 107.88L166.80 107.88Q165.84 107.88 164.52 108L164.52 108Q163.56 108.18 161.94 108.18L161.94 108.18ZM186.78 108.90Q183.54 108.90 181.05 107.28Q178.56 105.66 177.18 102.69Q175.80 99.72 175.80 95.82L175.80 95.82Q175.80 92.46 177.39 89.52Q178.98 86.58 181.62 84.87Q184.26 83.16 187.38 83.16L187.38 83.16Q190.98 83.16 193.29 85.29Q195.60 87.42 195.60 90.72L195.60 90.72Q195.60 92.58 193.80 92.58L193.80 92.58L181.14 92.58Q180.30 92.58 179.97 93.03Q179.64 93.48 179.64 94.80L179.64 94.80Q179.64 97.62 180.87 100.02Q182.10 102.42 184.23 103.83Q186.36 105.24 188.88 105.24L188.88 105.24Q192.42 105.24 194.76 102.54L194.76 102.54Q195.12 102.06 195.42 102.06L195.42 102.06Q195.90 102.06 195.90 102.66L195.90 102.66Q195.90 103.80 194.82 105.18L194.82 105.18Q193.50 106.92 191.34 107.91Q189.18 108.90 186.78 108.90L186.78 108.90ZM181.26 90.72L186.72 90.72Q189.54 90.72 191.16 90.42L191.16 90.42Q191.64 90.36 191.64 89.10L191.64 89.10Q191.64 87.36 190.11 86.13Q188.58 84.90 186.48 84.90L186.48 84.90Q185.16 84.90 183.75 85.71Q182.34 86.52 181.44 87.72Q180.54 88.92 180.54 90.12L180.54 90.12Q180.54 90.72 181.26 90.72L181.26 90.72ZM220.74 108.84Q217.74 108.84 216.12 107.01Q214.50 105.18 214.50 101.70L214.50 101.70L214.50 87.78Q214.50 87.24 214.11 87.06Q213.72 86.88 212.58 86.88L212.58 86.88L212.22 86.88Q211.92 86.88 211.71 86.52Q211.50 86.16 211.50 85.68L211.50 85.68Q211.50 85.56 211.65 85.35Q211.80 85.14 211.92 85.02L211.92 85.02Q215.16 82.74 217.26 80.22L217.26 80.22Q217.50 79.92 217.74 79.71Q217.98 79.50 218.28 79.50L218.28 79.50Q219.12 79.50 219.06 80.16L219.06 80.16L218.76 82.86L218.76 83.10Q218.76 83.64 219.12 83.82Q219.48 84 220.20 84L220.20 84L227.04 84Q227.28 84 227.46 84.39Q227.64 84.78 227.64 85.32L227.64 85.32Q227.64 85.86 227.46 86.37Q227.28 86.88 227.04 86.88L227.04 86.88L221.10 86.88Q219.48 86.88 219.09 87.12Q218.70 87.36 218.70 88.56L218.70 88.56L218.70 100.38Q218.70 102.84 219.72 104.19Q220.74 105.54 222.66 105.54L222.66 105.54Q224.34 105.54 225.33 105.30Q226.32 105.06 227.10 104.46L227.10 104.46L227.34 104.34Q227.76 104.34 227.76 105.18L227.76 105.18Q227.76 105.54 226.68 106.47Q225.60 107.40 224.01 108.12Q222.42 108.84 220.74 108.84L220.74 108.84ZM241.02 108.90Q237.78 108.90 235.29 107.28Q232.80 105.66 231.42 102.69Q230.04 99.72 230.04 95.82L230.04 95.82Q230.04 92.46 231.63 89.52Q233.22 86.58 235.86 84.87Q238.50 83.16 241.62 83.16L241.62 83.16Q245.22 83.16 247.53 85.29Q249.84 87.42 249.84 90.72L249.84 90.72Q249.84 92.58 248.04 92.58L248.04 92.58L235.38 92.58Q234.54 92.58 234.21 93.03Q233.88 93.48 233.88 94.80L233.88 94.80Q233.88 97.62 235.11 100.02Q236.34 102.42 238.47 103.83Q240.60 105.24 243.12 105.24L243.12 105.24Q246.66 105.24 249 102.54L249 102.54Q249.36 102.06 249.66 102.06L249.66 102.06Q250.14 102.06 250.14 102.66L250.14 102.66Q250.14 103.80 249.06 105.18L249.06 105.18Q247.74 106.92 245.58 107.91Q243.42 108.90 241.02 108.90L241.02 108.90ZM235.50 90.72L240.96 90.72Q243.78 90.72 245.40 90.42L245.40 90.42Q245.88 90.36 245.88 89.10L245.88 89.10Q245.88 87.36 244.35 86.13Q242.82 84.90 240.72 84.90L240.72 84.90Q239.40 84.90 237.99 85.71Q236.58 86.52 235.68 87.72Q234.78 88.92 234.78 90.12L234.78 90.12Q234.78 90.72 235.50 90.72L235.50 90.72ZM252.54 108.24Q251.34 108.24 251.34 107.70L251.34 107.70Q251.34 107.28 251.70 107.04Q252.06 106.80 252.72 106.62L252.72 106.62Q253.74 106.32 254.64 105.57Q255.54 104.82 256.74 103.20L256.74 103.20L261.36 96.78Q261.72 96.36 261.72 96L261.72 96Q261.72 95.70 261.48 95.40L261.48 95.40L256.56 87.90Q255.84 86.70 255.27 86.16Q254.70 85.62 253.80 85.38L253.80 85.38Q253.14 85.20 252.78 84.96Q252.42 84.72 252.42 84.30L252.42 84.30Q252.42 83.76 253.62 83.76L253.62 83.76Q254.88 83.76 255.84 83.88L255.84 83.88Q257.04 84 258.54 84L258.54 84L260.10 83.94Q260.52 83.88 261.60 83.88L261.60 83.88L261.78 83.88Q262.98 83.88 262.98 84.42L262.98 84.42Q262.98 84.72 262.71 84.90Q262.44 85.08 261.90 85.26L261.90 85.26Q261.30 85.44 260.97 85.65Q260.64 85.86 260.64 86.28L260.64 86.28Q260.64 86.94 261.42 88.20L261.42 88.20L264.18 92.34Q264.42 92.76 264.72 92.34L264.72 92.34L267.78 87.72Q268.26 87.06 268.26 86.40L268.26 86.40Q268.26 85.68 267.48 85.44L267.48 85.44Q266.76 85.20 266.43 84.99Q266.10 84.78 266.10 84.36L266.10 84.36Q266.10 83.82 267.30 83.82L267.30 83.82Q267.60 83.82 268.71 83.91Q269.82 84 270.48 84L270.48 84Q271.80 84 272.82 83.85Q273.84 83.70 274.26 83.70L274.26 83.70Q275.46 83.70 275.46 84.24L275.46 84.24Q275.46 84.66 275.13 84.87Q274.80 85.08 274.08 85.32L274.08 85.32Q271.20 86.16 269.82 88.14L269.82 88.14L266.04 93.84Q265.80 94.20 266.10 94.62L266.10 94.62L271.92 104.10Q272.64 105.24 273.30 105.78Q273.96 106.32 274.86 106.62L274.86 106.62Q275.52 106.80 275.88 107.04Q276.24 107.28 276.24 107.70L276.24 107.70Q276.24 108.24 275.04 108.24L275.04 108.24Q273.90 108.24 272.82 108.12L272.82 108.12Q271.62 108 270 108L270 108L267.78 108.06Q267 108.12 265.62 108.12L265.62 108.12Q264.24 108.12 264.24 107.52L264.24 107.52Q264.24 107.04 264.60 106.77Q264.96 106.50 265.74 106.32L265.74 106.32Q267.42 105.84 267.42 104.88L267.42 104.88Q267.42 104.40 267.06 103.80L267.06 103.80L263.52 98.04Q263.46 97.98 263.34 97.98Q263.22 97.98 263.16 98.04L263.16 98.04L259.20 103.98Q258.90 104.40 258.90 105.12L258.90 105.12Q258.90 105.54 259.11 105.93Q259.32 106.32 259.74 106.44L259.74 106.44Q260.46 106.68 260.79 106.89Q261.12 107.10 261.12 107.52L261.12 107.52Q261.12 108.06 259.92 108.06L259.92 108.06Q259.56 108.06 258.63 108Q257.70 107.94 256.56 107.94L256.56 107.94Q255.78 107.94 253.80 108.12L253.80 108.12Q252.96 108.24 252.54 108.24L252.54 108.24ZM287.88 108.84Q284.88 108.84 283.26 107.01Q281.64 105.18 281.64 101.70L281.64 101.70L281.64 87.78Q281.64 87.24 281.25 87.06Q280.86 86.88 279.72 86.88L279.72 86.88L279.36 86.88Q279.06 86.88 278.85 86.52Q278.64 86.16 278.64 85.68L278.64 85.68Q278.64 85.56 278.79 85.35Q278.94 85.14 279.06 85.02L279.06 85.02Q282.30 82.74 284.40 80.22L284.40 80.22Q284.64 79.92 284.88 79.71Q285.12 79.50 285.42 79.50L285.42 79.50Q286.26 79.50 286.20 80.16L286.20 80.16L285.90 82.86L285.90 83.10Q285.90 83.64 286.26 83.82Q286.62 84 287.34 84L287.34 84L294.18 84Q294.42 84 294.60 84.39Q294.78 84.78 294.78 85.32L294.78 85.32Q294.78 85.86 294.60 86.37Q294.42 86.88 294.18 86.88L294.18 86.88L288.24 86.88Q286.62 86.88 286.23 87.12Q285.84 87.36 285.84 88.56L285.84 88.56L285.84 100.38Q285.84 102.84 286.86 104.19Q287.88 105.54 289.80 105.54L289.80 105.54Q291.48 105.54 292.47 105.30Q293.46 105.06 294.24 104.46L294.24 104.46L294.48 104.34Q294.90 104.34 294.90 105.18L294.90 105.18Q294.90 105.54 293.82 106.47Q292.74 107.40 291.15 108.12Q289.56 108.84 287.88 108.84L287.88 108.84Z"></path>
            </g>
        </g>
    </g>
    
    <!-- ITEM 0 -->
    <g>
        <defs>
            <clipPath id="clip-path-id-viewbox-item-0">
                <rect x="0.0" y="0.0" width="0.0" height="0.0"/>
            </clipPath>
        </defs>
        <g transform="translate(0.0 0.0) rotate(0.0 0.5 0.5) scale(Infinity Infinity)">
            <g clip-path="url(#clip-path-id-viewbox-item-0)" transform="translate(-0.0 -0.0)">
                
            </g>
        </g>
    </g>
    
    <!-- ITEM 0 -->
    <g>
        <defs>
            <clipPath id="clip-path-id-viewbox-item-0">
                <rect x="0.0" y="0.0" width="295.3798828125" height="108.0"/>
            </clipPath>
        </defs>
        <g transform="translate(294.0 220.0) rotate(0.0 147.5 54.0) scale(0.9987139177899222 1.0)">
            <g clip-path="url(#clip-path-id-viewbox-item-0)" transform="translate(-0.0 -0.0)">
                <path fill="black" stroke="black" d="M3.96 108.30Q2.22 108.30 2.22 107.64L2.22 107.64Q2.22 107.22 2.70 106.98Q3.18 106.74 4.20 106.56L4.20 106.56Q6.54 106.14 7.59 105.15Q8.64 104.16 8.64 102.06L8.64 102.06L8.64 75.06Q8.64 72.96 7.77 72.03Q6.90 71.10 4.62 70.68L4.62 70.68Q2.64 70.32 2.64 69.48L2.64 69.48Q2.64 68.82 4.38 68.82L4.38 68.82Q6.66 68.82 9.90 68.94L9.90 68.94L15 69L23.22 68.94L28.32 68.82Q29.34 68.82 29.40 69.36L29.40 69.36Q29.52 69.84 29.91 72Q30.30 74.16 30.30 75.54L30.30 75.54Q30.30 76.44 29.46 76.44L29.46 76.44Q29.16 76.44 29.04 76.32Q28.92 76.20 28.80 75.84L28.80 75.84Q28.68 75.54 28.32 74.28Q27.96 73.02 27.48 72.54L27.48 72.54Q26.04 70.92 23.46 70.92L23.46 70.92L15.60 70.92Q15 70.92 14.22 71.49Q13.44 72.06 13.44 72.84L13.44 72.84L13.44 85.56Q13.44 86.10 13.77 86.49Q14.10 86.88 14.52 86.88L14.52 86.88L20.46 86.88Q22.14 86.88 22.80 86.28Q23.46 85.68 23.94 83.94L23.94 83.94Q24.30 82.62 25.02 82.62L25.02 82.62Q25.26 82.62 25.53 82.89Q25.80 83.16 25.80 83.58L25.80 83.58L25.74 85.14L25.62 87.78L25.68 90.96L25.74 92.40Q25.74 93.42 25.20 93.42L25.20 93.42Q24.30 93.42 23.82 91.50L23.82 91.50Q23.46 90.06 22.83 89.43Q22.20 88.80 21.06 88.80L21.06 88.80L15.48 88.80Q14.34 88.80 13.89 89.10Q13.44 89.40 13.44 90.36L13.44 90.36L13.44 101.88Q13.44 104.10 14.37 105Q15.30 105.90 17.40 105.90L17.40 105.90L21.84 105.90Q23.82 105.90 25.11 105.66Q26.40 105.42 27.30 104.88L27.30 104.88Q28.20 104.28 28.95 103.23Q29.70 102.18 30.72 100.26L30.72 100.26Q31.14 99.48 31.56 99.48L31.56 99.48Q32.34 99.48 32.34 100.32L32.34 100.32Q32.34 101.10 31.68 103.59Q31.02 106.08 30.48 107.28L30.48 107.28Q30.42 107.40 30.30 107.70Q30.18 108 30.03 108.15Q29.88 108.30 29.64 108.30L29.64 108.30Q28.44 108.30 19.08 108.12L19.08 108.12Q14.94 107.94 10.86 107.94L10.86 107.94Q9.18 107.94 7.74 108.12L7.74 108.12Q4.68 108.30 3.96 108.30L3.96 108.30ZM35.64 108.24Q34.44 108.24 34.44 107.70L34.44 107.70Q34.44 107.28 34.80 107.04Q35.16 106.80 35.82 106.62L35.82 106.62Q36.84 106.32 37.74 105.57Q38.64 104.82 39.84 103.20L39.84 103.20L44.46 96.78Q44.82 96.36 44.82 96L44.82 96Q44.82 95.70 44.58 95.40L44.58 95.40L39.66 87.90Q38.94 86.70 38.37 86.16Q37.80 85.62 36.90 85.38L36.90 85.38Q36.24 85.20 35.88 84.96Q35.52 84.72 35.52 84.30L35.52 84.30Q35.52 83.76 36.72 83.76L36.72 83.76Q37.98 83.76 38.94 83.88L38.94 83.88Q40.14 84 41.64 84L41.64 84L43.20 83.94Q43.62 83.88 44.70 83.88L44.70 83.88L44.88 83.88Q46.08 83.88 46.08 84.42L46.08 84.42Q46.08 84.72 45.81 84.90Q45.54 85.08 45 85.26L45 85.26Q44.40 85.44 44.07 85.65Q43.74 85.86 43.74 86.28L43.74 86.28Q43.74 86.94 44.52 88.20L44.52 88.20L47.28 92.34Q47.52 92.76 47.82 92.34L47.82 92.34L50.88 87.72Q51.36 87.06 51.36 86.40L51.36 86.40Q51.36 85.68 50.58 85.44L50.58 85.44Q49.86 85.20 49.53 84.99Q49.20 84.78 49.20 84.36L49.20 84.36Q49.20 83.82 50.40 83.82L50.40 83.82Q50.70 83.82 51.81 83.91Q52.92 84 53.58 84L53.58 84Q54.90 84 55.92 83.85Q56.94 83.70 57.36 83.70L57.36 83.70Q58.56 83.70 58.56 84.24L58.56 84.24Q58.56 84.66 58.23 84.87Q57.90 85.08 57.18 85.32L57.18 85.32Q54.30 86.16 52.92 88.14L52.92 88.14L49.14 93.84Q48.90 94.20 49.20 94.62L49.20 94.62L55.02 104.10Q55.74 105.24 56.40 105.78Q57.06 106.32 57.96 106.62L57.96 106.62Q58.62 106.80 58.98 107.04Q59.34 107.28 59.34 107.70L59.34 107.70Q59.34 108.24 58.14 108.24L58.14 108.24Q57 108.24 55.92 108.12L55.92 108.12Q54.72 108 53.10 108L53.10 108L50.88 108.06Q50.10 108.12 48.72 108.12L48.72 108.12Q47.34 108.12 47.34 107.52L47.34 107.52Q47.34 107.04 47.70 106.77Q48.06 106.50 48.84 106.32L48.84 106.32Q50.52 105.84 50.52 104.88L50.52 104.88Q50.52 104.40 50.16 103.80L50.16 103.80L46.62 98.04Q46.56 97.98 46.44 97.98Q46.32 97.98 46.26 98.04L46.26 98.04L42.30 103.98Q42 104.40 42 105.12L42 105.12Q42 105.54 42.21 105.93Q42.42 106.32 42.84 106.44L42.84 106.44Q43.56 106.68 43.89 106.89Q44.22 107.10 44.22 107.52L44.22 107.52Q44.22 108.06 43.02 108.06L43.02 108.06Q42.66 108.06 41.73 108Q40.80 107.94 39.66 107.94L39.66 107.94Q38.88 107.94 36.90 108.12L36.90 108.12Q36.06 108.24 35.64 108.24L35.64 108.24ZM65.76 108.84Q64.74 108.84 63.60 108.03Q62.46 107.22 61.71 105.99Q60.96 104.76 60.96 103.68L60.96 103.68Q60.96 101.82 61.95 100.74Q62.94 99.66 65.22 98.70L65.22 98.70L71.34 96.18Q72.48 95.70 72.72 95.34Q72.96 94.98 73.02 93.78L73.02 93.78L73.14 89.94Q73.20 88.32 72.24 87.21Q71.28 86.10 69.60 86.10L69.60 86.10Q68.70 86.10 67.80 86.40Q66.90 86.70 66.30 87.18L66.30 87.18Q65.70 87.60 65.70 88.92L65.70 88.92L65.76 90Q65.76 90.48 64.23 91.29Q62.70 92.10 61.80 92.10L61.80 92.10Q61.50 92.10 61.32 91.95Q61.14 91.80 61.14 91.56L61.14 91.56Q61.14 90.60 61.77 89.49Q62.40 88.38 63.54 87.42L63.54 87.42Q65.58 85.56 68.13 84.36Q70.68 83.16 72.48 83.16L72.48 83.16Q74.64 83.16 76.05 84.69Q77.46 86.22 77.40 88.50L77.40 88.50L77.10 102.90Q77.04 104.16 77.64 104.94Q78.24 105.72 79.26 105.72L79.26 105.72Q80.76 105.72 81.48 105.06L81.48 105.06Q81.78 104.76 81.96 104.76L81.96 104.76Q82.26 104.76 82.44 104.94Q82.62 105.12 82.62 105.42L82.62 105.42Q82.62 105.66 82.44 106.05Q82.26 106.44 81.96 106.74L81.96 106.74Q81 107.70 79.89 108.27Q78.78 108.84 77.82 108.84L77.82 108.84Q75.06 108.84 73.44 105.72L73.44 105.72L73.26 105.72Q71.28 107.34 69.48 108.09Q67.68 108.84 65.76 108.84L65.76 108.84ZM68.58 105.96Q70.68 105.96 72.12 104.52L72.12 104.52Q72.48 104.16 72.66 103.62Q72.84 103.08 72.90 102.06L72.90 102.06L73.02 99.12L73.02 98.76Q73.02 98.28 72.90 98.07Q72.78 97.86 72.48 97.86L72.48 97.86Q72.12 97.86 71.28 98.16L71.28 98.16Q68.28 99.24 66.96 100.44Q65.64 101.64 65.64 102.78L65.64 102.78Q65.64 104.28 66.51 105.12Q67.38 105.96 68.58 105.96L68.58 105.96ZM85.32 108.18Q84.12 108.18 84.12 107.52L84.12 107.52Q84.12 107.16 84.45 106.98Q84.78 106.80 85.50 106.56L85.50 106.56Q86.82 106.14 87.45 105.75Q88.08 105.36 88.08 104.28L88.08 104.28L88.08 91.38Q88.08 89.46 87.63 88.38Q87.18 87.30 85.80 87.06L85.80 87.06Q85.26 86.94 85.26 86.28L85.26 86.28Q85.26 85.68 85.74 85.56L85.74 85.56Q87.36 85.14 88.32 84.69Q89.28 84.24 90.54 83.34L90.54 83.34L91.86 82.44Q91.92 82.44 92.07 82.32Q92.22 82.20 92.40 82.20L92.40 82.20Q92.52 82.20 92.64 82.32Q92.76 82.44 92.76 82.62L92.76 82.62L92.64 83.88Q92.58 84.36 92.52 85.05Q92.46 85.74 92.46 86.46L92.46 86.46Q92.46 87.06 92.58 87.18L92.58 87.18L92.70 87.18Q96.84 83.16 102.06 83.16L102.06 83.16Q104.28 83.16 105.72 84.12Q107.16 85.08 108.06 87.30L108.06 87.30L108.24 87.30Q112.92 83.16 118.02 83.16L118.02 83.16Q120.78 83.16 122.40 85.65Q124.02 88.14 124.02 91.50L124.02 91.50L124.02 104.28Q124.02 105.36 124.65 105.75Q125.28 106.14 126.60 106.56L126.60 106.56Q127.32 106.80 127.65 106.98Q127.98 107.16 127.98 107.52L127.98 107.52Q127.98 107.88 127.71 108.03Q127.44 108.18 126.78 108.18L126.78 108.18Q125.16 108.18 124.26 108L124.26 108Q123.06 107.88 122.04 107.88L122.04 107.88Q120.96 107.88 119.76 108L119.76 108Q118.68 108.18 117.06 108.18L117.06 108.18Q115.86 108.18 115.86 107.52L115.86 107.52Q115.86 107.10 116.19 106.92Q116.52 106.74 117.24 106.56L117.24 106.56Q118.50 106.26 119.16 105.81Q119.82 105.36 119.82 104.28L119.82 104.28L119.82 91.68Q119.82 89.46 118.38 87.72Q116.94 85.98 115.02 85.98L115.02 85.98Q111.84 85.98 109.80 87.60L109.80 87.60Q108.12 88.92 108.12 91.92L108.12 91.92L108.12 104.28Q108.12 105.36 108.84 105.81Q109.56 106.26 110.82 106.56L110.82 106.56Q112.20 106.86 112.20 107.52L112.20 107.52Q112.20 108.18 111 108.18L111 108.18Q109.38 108.18 108.36 108L108.36 108Q107.04 107.88 106.08 107.88L106.08 107.88Q105 107.88 103.80 108L103.80 108Q102.72 108.18 101.10 108.18L101.10 108.18Q99.90 108.18 99.90 107.52L99.90 107.52Q99.90 107.16 100.17 107.01Q100.44 106.86 100.77 106.74Q101.10 106.62 101.28 106.56L101.28 106.56Q102.66 106.14 103.29 105.75Q103.92 105.36 103.92 104.28L103.92 104.28L103.92 91.68Q103.92 89.46 102.48 87.72Q101.04 85.98 99.12 85.98L99.12 85.98Q95.94 85.98 93.90 87.60L93.90 87.60Q92.28 88.80 92.28 91.92L92.28 91.92L92.28 104.28Q92.28 105.36 92.91 105.75Q93.54 106.14 94.86 106.56L94.86 106.56Q95.04 106.62 95.43 106.74Q95.82 106.86 96.03 107.04Q96.24 107.22 96.24 107.52L96.24 107.52Q96.24 108.18 95.04 108.18L95.04 108.18Q93.48 108.18 92.46 108L92.46 108Q91.14 107.88 90.18 107.88L90.18 107.88Q89.22 107.88 87.90 108L87.90 108Q86.94 108.18 85.32 108.18L85.32 108.18ZM131.76 125.10Q130.50 125.10 130.50 124.56L130.50 124.56Q130.50 124.14 130.83 123.93Q131.16 123.72 131.88 123.48L131.88 123.48Q133.20 123.06 133.83 122.67Q134.46 122.28 134.46 121.20L134.46 121.20L134.46 90.78Q134.46 89.76 133.74 88.23Q133.02 86.70 131.70 86.40L131.70 86.40Q131.46 86.34 131.34 86.13Q131.22 85.92 131.22 85.62L131.22 85.62Q131.22 85.02 131.64 84.90L131.64 84.90Q134.28 84.30 136.26 83.49Q138.24 82.68 138.60 82.50L138.60 82.50L138.72 82.44Q138.84 82.44 138.96 82.62Q139.08 82.80 139.08 82.98L139.08 82.98L138.96 84.54Q138.78 85.62 138.78 86.58L138.78 86.58Q138.78 87.06 138.84 87.12L138.84 87.12Q139.50 86.46 141.15 85.53Q142.80 84.60 144.81 83.88Q146.82 83.16 148.56 83.16L148.56 83.16Q151.50 83.16 153.75 84.78Q156 86.40 157.20 89.01Q158.40 91.62 158.40 94.50L158.40 94.50Q158.40 98.04 156.60 101.37Q154.80 104.70 151.68 106.77Q148.56 108.84 144.90 108.84L144.90 108.84Q143.58 108.84 141.66 108.27Q139.74 107.70 138.90 106.92L138.90 106.92Q138.78 106.92 138.72 108.12Q138.66 109.32 138.66 109.98L138.66 109.98L138.66 121.20Q138.66 122.10 139.44 122.55Q140.22 123 141.03 123.21Q141.84 123.42 142.14 123.48L142.14 123.48Q142.86 123.72 143.19 123.93Q143.52 124.14 143.52 124.56L143.52 124.56Q143.52 125.10 142.20 125.10L142.20 125.10Q140.58 125.10 139.20 124.92L139.20 124.92Q137.64 124.80 136.56 124.80L136.56 124.80Q135.60 124.80 134.28 124.92L134.28 124.92Q133.32 125.10 131.76 125.10L131.76 125.10ZM145.80 106.98Q147.24 106.98 149.07 105.93Q150.90 104.88 152.25 102.48Q153.60 100.08 153.60 96.42L153.60 96.42Q153.60 90.36 150.99 88.11Q148.38 85.86 145.44 85.86L145.44 85.86Q144.12 85.86 142.56 86.43Q141 87 139.92 87.78Q138.84 88.56 138.84 88.98L138.84 88.98Q138.84 91.68 138.72 95.28L138.72 95.28Q138.66 96.48 138.66 98.04L138.66 98.04Q138.66 100.38 139.74 102.45Q140.82 104.52 142.50 105.75Q144.18 106.98 145.80 106.98L145.80 106.98ZM161.94 108.18Q160.74 108.18 160.74 107.64L160.74 107.64Q160.74 107.22 161.07 107.01Q161.40 106.80 162.12 106.56L162.12 106.56Q163.44 106.14 164.07 105.75Q164.70 105.36 164.70 104.28L164.70 104.28L164.70 74.04Q164.70 70.26 161.94 69.66L161.94 69.66Q161.70 69.60 161.58 69.39Q161.46 69.18 161.46 68.88L161.46 68.88Q161.46 68.28 161.88 68.16L161.88 68.16Q164.22 67.62 167.22 66.36L167.22 66.36L168.66 65.82Q168.90 65.70 169.02 65.70L169.02 65.70Q169.14 65.70 169.23 65.85Q169.32 66 169.32 66.12L169.32 66.12Q169.32 66.48 169.11 68.40Q168.90 70.32 168.90 74.28L168.90 74.28L168.90 104.28Q168.90 105.36 169.53 105.75Q170.16 106.14 171.48 106.56L171.48 106.56Q172.20 106.80 172.53 107.01Q172.86 107.22 172.86 107.64L172.86 107.64Q172.86 108.18 171.66 108.18L171.66 108.18Q170.10 108.18 169.08 108L169.08 108Q167.76 107.88 166.80 107.88L166.80 107.88Q165.84 107.88 164.52 108L164.52 108Q163.56 108.18 161.94 108.18L161.94 108.18ZM186.78 108.90Q183.54 108.90 181.05 107.28Q178.56 105.66 177.18 102.69Q175.80 99.72 175.80 95.82L175.80 95.82Q175.80 92.46 177.39 89.52Q178.98 86.58 181.62 84.87Q184.26 83.16 187.38 83.16L187.38 83.16Q190.98 83.16 193.29 85.29Q195.60 87.42 195.60 90.72L195.60 90.72Q195.60 92.58 193.80 92.58L193.80 92.58L181.14 92.58Q180.30 92.58 179.97 93.03Q179.64 93.48 179.64 94.80L179.64 94.80Q179.64 97.62 180.87 100.02Q182.10 102.42 184.23 103.83Q186.36 105.24 188.88 105.24L188.88 105.24Q192.42 105.24 194.76 102.54L194.76 102.54Q195.12 102.06 195.42 102.06L195.42 102.06Q195.90 102.06 195.90 102.66L195.90 102.66Q195.90 103.80 194.82 105.18L194.82 105.18Q193.50 106.92 191.34 107.91Q189.18 108.90 186.78 108.90L186.78 108.90ZM181.26 90.72L186.72 90.72Q189.54 90.72 191.16 90.42L191.16 90.42Q191.64 90.36 191.64 89.10L191.64 89.10Q191.64 87.36 190.11 86.13Q188.58 84.90 186.48 84.90L186.48 84.90Q185.16 84.90 183.75 85.71Q182.34 86.52 181.44 87.72Q180.54 88.92 180.54 90.12L180.54 90.12Q180.54 90.72 181.26 90.72L181.26 90.72ZM220.74 108.84Q217.74 108.84 216.12 107.01Q214.50 105.18 214.50 101.70L214.50 101.70L214.50 87.78Q214.50 87.24 214.11 87.06Q213.72 86.88 212.58 86.88L212.58 86.88L212.22 86.88Q211.92 86.88 211.71 86.52Q211.50 86.16 211.50 85.68L211.50 85.68Q211.50 85.56 211.65 85.35Q211.80 85.14 211.92 85.02L211.92 85.02Q215.16 82.74 217.26 80.22L217.26 80.22Q217.50 79.92 217.74 79.71Q217.98 79.50 218.28 79.50L218.28 79.50Q219.12 79.50 219.06 80.16L219.06 80.16L218.76 82.86L218.76 83.10Q218.76 83.64 219.12 83.82Q219.48 84 220.20 84L220.20 84L227.04 84Q227.28 84 227.46 84.39Q227.64 84.78 227.64 85.32L227.64 85.32Q227.64 85.86 227.46 86.37Q227.28 86.88 227.04 86.88L227.04 86.88L221.10 86.88Q219.48 86.88 219.09 87.12Q218.70 87.36 218.70 88.56L218.70 88.56L218.70 100.38Q218.70 102.84 219.72 104.19Q220.74 105.54 222.66 105.54L222.66 105.54Q224.34 105.54 225.33 105.30Q226.32 105.06 227.10 104.46L227.10 104.46L227.34 104.34Q227.76 104.34 227.76 105.18L227.76 105.18Q227.76 105.54 226.68 106.47Q225.60 107.40 224.01 108.12Q222.42 108.84 220.74 108.84L220.74 108.84ZM241.02 108.90Q237.78 108.90 235.29 107.28Q232.80 105.66 231.42 102.69Q230.04 99.72 230.04 95.82L230.04 95.82Q230.04 92.46 231.63 89.52Q233.22 86.58 235.86 84.87Q238.50 83.16 241.62 83.16L241.62 83.16Q245.22 83.16 247.53 85.29Q249.84 87.42 249.84 90.72L249.84 90.72Q249.84 92.58 248.04 92.58L248.04 92.58L235.38 92.58Q234.54 92.58 234.21 93.03Q233.88 93.48 233.88 94.80L233.88 94.80Q233.88 97.62 235.11 100.02Q236.34 102.42 238.47 103.83Q240.60 105.24 243.12 105.24L243.12 105.24Q246.66 105.24 249 102.54L249 102.54Q249.36 102.06 249.66 102.06L249.66 102.06Q250.14 102.06 250.14 102.66L250.14 102.66Q250.14 103.80 249.06 105.18L249.06 105.18Q247.74 106.92 245.58 107.91Q243.42 108.90 241.02 108.90L241.02 108.90ZM235.50 90.72L240.96 90.72Q243.78 90.72 245.40 90.42L245.40 90.42Q245.88 90.36 245.88 89.10L245.88 89.10Q245.88 87.36 244.35 86.13Q242.82 84.90 240.72 84.90L240.72 84.90Q239.40 84.90 237.99 85.71Q236.58 86.52 235.68 87.72Q234.78 88.92 234.78 90.12L234.78 90.12Q234.78 90.72 235.50 90.72L235.50 90.72ZM252.54 108.24Q251.34 108.24 251.34 107.70L251.34 107.70Q251.34 107.28 251.70 107.04Q252.06 106.80 252.72 106.62L252.72 106.62Q253.74 106.32 254.64 105.57Q255.54 104.82 256.74 103.20L256.74 103.20L261.36 96.78Q261.72 96.36 261.72 96L261.72 96Q261.72 95.70 261.48 95.40L261.48 95.40L256.56 87.90Q255.84 86.70 255.27 86.16Q254.70 85.62 253.80 85.38L253.80 85.38Q253.14 85.20 252.78 84.96Q252.42 84.72 252.42 84.30L252.42 84.30Q252.42 83.76 253.62 83.76L253.62 83.76Q254.88 83.76 255.84 83.88L255.84 83.88Q257.04 84 258.54 84L258.54 84L260.10 83.94Q260.52 83.88 261.60 83.88L261.60 83.88L261.78 83.88Q262.98 83.88 262.98 84.42L262.98 84.42Q262.98 84.72 262.71 84.90Q262.44 85.08 261.90 85.26L261.90 85.26Q261.30 85.44 260.97 85.65Q260.64 85.86 260.64 86.28L260.64 86.28Q260.64 86.94 261.42 88.20L261.42 88.20L264.18 92.34Q264.42 92.76 264.72 92.34L264.72 92.34L267.78 87.72Q268.26 87.06 268.26 86.40L268.26 86.40Q268.26 85.68 267.48 85.44L267.48 85.44Q266.76 85.20 266.43 84.99Q266.10 84.78 266.10 84.36L266.10 84.36Q266.10 83.82 267.30 83.82L267.30 83.82Q267.60 83.82 268.71 83.91Q269.82 84 270.48 84L270.48 84Q271.80 84 272.82 83.85Q273.84 83.70 274.26 83.70L274.26 83.70Q275.46 83.70 275.46 84.24L275.46 84.24Q275.46 84.66 275.13 84.87Q274.80 85.08 274.08 85.32L274.08 85.32Q271.20 86.16 269.82 88.14L269.82 88.14L266.04 93.84Q265.80 94.20 266.10 94.62L266.10 94.62L271.92 104.10Q272.64 105.24 273.30 105.78Q273.96 106.32 274.86 106.62L274.86 106.62Q275.52 106.80 275.88 107.04Q276.24 107.28 276.24 107.70L276.24 107.70Q276.24 108.24 275.04 108.24L275.04 108.24Q273.90 108.24 272.82 108.12L272.82 108.12Q271.62 108 270 108L270 108L267.78 108.06Q267 108.12 265.62 108.12L265.62 108.12Q264.24 108.12 264.24 107.52L264.24 107.52Q264.24 107.04 264.60 106.77Q264.96 106.50 265.74 106.32L265.74 106.32Q267.42 105.84 267.42 104.88L267.42 104.88Q267.42 104.40 267.06 103.80L267.06 103.80L263.52 98.04Q263.46 97.98 263.34 97.98Q263.22 97.98 263.16 98.04L263.16 98.04L259.20 103.98Q258.90 104.40 258.90 105.12L258.90 105.12Q258.90 105.54 259.11 105.93Q259.32 106.32 259.74 106.44L259.74 106.44Q260.46 106.68 260.79 106.89Q261.12 107.10 261.12 107.52L261.12 107.52Q261.12 108.06 259.92 108.06L259.92 108.06Q259.56 108.06 258.63 108Q257.70 107.94 256.56 107.94L256.56 107.94Q255.78 107.94 253.80 108.12L253.80 108.12Q252.96 108.24 252.54 108.24L252.54 108.24ZM287.88 108.84Q284.88 108.84 283.26 107.01Q281.64 105.18 281.64 101.70L281.64 101.70L281.64 87.78Q281.64 87.24 281.25 87.06Q280.86 86.88 279.72 86.88L279.72 86.88L279.36 86.88Q279.06 86.88 278.85 86.52Q278.64 86.16 278.64 85.68L278.64 85.68Q278.64 85.56 278.79 85.35Q278.94 85.14 279.06 85.02L279.06 85.02Q282.30 82.74 284.40 80.22L284.40 80.22Q284.64 79.92 284.88 79.71Q285.12 79.50 285.42 79.50L285.42 79.50Q286.26 79.50 286.20 80.16L286.20 80.16L285.90 82.86L285.90 83.10Q285.90 83.64 286.26 83.82Q286.62 84 287.34 84L287.34 84L294.18 84Q294.42 84 294.60 84.39Q294.78 84.78 294.78 85.32L294.78 85.32Q294.78 85.86 294.60 86.37Q294.42 86.88 294.18 86.88L294.18 86.88L288.24 86.88Q286.62 86.88 286.23 87.12Q285.84 87.36 285.84 88.56L285.84 88.56L285.84 100.38Q285.84 102.84 286.86 104.19Q287.88 105.54 289.80 105.54L289.80 105.54Q291.48 105.54 292.47 105.30Q293.46 105.06 294.24 104.46L294.24 104.46L294.48 104.34Q294.90 104.34 294.90 105.18L294.90 105.18Q294.90 105.54 293.82 106.47Q292.74 107.40 291.15 108.12Q289.56 108.84 287.88 108.84L287.88 108.84Z"></path>
            </g>
        </g>
    </g>
    
    <!-- ITEM 1 -->
    <g>
        <defs>
            <clipPath id="clip-path-id-viewbox-item-1">
                <rect x="0.0" y="0.0" width="352.5599060058594" height="108.0"/>
            </clipPath>
        </defs>
        <g transform="translate(528.0 261.0) rotate(0.0 260.5 94.5) scale(1.4777630443075431 1.75)">
            <g clip-path="url(#clip-path-id-viewbox-item-1)" transform="translate(-0.0 -0.0)">
                <path fill="black" stroke="black" d="M31.14 108L5.58 108L5.58 66.12L31.14 66.12L31.14 70.56L10.62 70.56L10.62 84.60L29.94 84.60L29.94 89.04L10.62 89.04L10.62 103.56L31.14 103.56L31.14 108ZM41.58 108L36.24 108L47.70 92.40L36.72 77.04L42.36 77.04L50.22 88.56L50.40 88.56L58.56 77.04L63.90 77.04L52.98 92.04L64.14 108L58.50 108L50.46 95.88L50.28 95.88L41.58 108ZM95.70 108L93.00 108Q90.30 108 89.13 106.56Q87.96 105.12 87.66 102.96L87.66 102.96L87.36 102.96Q86.34 105.84 84.00 107.28Q81.66 108.72 78.42 108.72L78.42 108.72Q73.50 108.72 70.77 106.20Q68.04 103.68 68.04 99.36L68.04 99.36Q68.04 94.98 71.25 92.64Q74.46 90.30 81.24 90.30L81.24 90.30L87.36 90.30L87.36 87.24Q87.36 83.94 85.56 82.20Q83.76 80.46 80.04 80.46L80.04 80.46Q77.22 80.46 75.33 81.72Q73.44 82.98 72.18 85.08L72.18 85.08L69.30 82.38Q70.56 79.86 73.32 78.09Q76.08 76.32 80.28 76.32L80.28 76.32Q85.92 76.32 89.04 79.08Q92.16 81.84 92.16 86.76L92.16 86.76L92.16 103.80L95.70 103.80L95.70 108ZM79.20 104.64L79.20 104.64Q81.00 104.64 82.50 104.22Q84.00 103.80 85.08 103.02Q86.16 102.24 86.76 101.22Q87.36 100.20 87.36 99L87.36 99L87.36 93.90L81.00 93.90Q76.86 93.90 74.97 95.10Q73.08 96.30 73.08 98.58L73.08 98.58L73.08 99.84Q73.08 102.12 74.73 103.38Q76.38 104.64 79.20 104.64ZM107.34 108L102.54 108L102.54 77.04L107.34 77.04L107.34 82.08L107.58 82.08Q108.12 80.88 108.81 79.83Q109.50 78.78 110.49 78Q111.48 77.22 112.80 76.77Q114.12 76.32 115.92 76.32L115.92 76.32Q118.98 76.32 121.56 77.79Q124.14 79.26 125.40 82.62L125.40 82.62L125.52 82.62Q126.36 80.10 128.67 78.21Q130.98 76.32 134.94 76.32L134.94 76.32Q139.68 76.32 142.35 79.41Q145.02 82.50 145.02 88.14L145.02 88.14L145.02 108L140.22 108L140.22 88.98Q140.22 84.84 138.60 82.74Q136.98 80.64 133.44 80.64L133.44 80.64Q132 80.64 130.71 81Q129.42 81.36 128.40 82.08Q127.38 82.80 126.78 83.91Q126.18 85.02 126.18 86.52L126.18 86.52L126.18 108L121.38 108L121.38 88.98Q121.38 84.84 119.76 82.74Q118.14 80.64 114.72 80.64L114.72 80.64Q113.28 80.64 111.96 81Q110.64 81.36 109.62 82.08Q108.60 82.80 107.97 83.91Q107.34 85.02 107.34 86.52L107.34 86.52L107.34 108ZM154.92 120L154.92 77.04L159.72 77.04L159.72 82.08L159.96 82.08Q161.16 79.14 163.47 77.73Q165.78 76.32 169.02 76.32L169.02 76.32Q171.90 76.32 174.24 77.46Q176.58 78.60 178.23 80.70Q179.88 82.80 180.75 85.80Q181.62 88.80 181.62 92.52L181.62 92.52Q181.62 96.24 180.75 99.24Q179.88 102.24 178.23 104.34Q176.58 106.44 174.24 107.58Q171.90 108.72 169.02 108.72L169.02 108.72Q162.72 108.72 159.96 102.96L159.96 102.96L159.72 102.96L159.72 120L154.92 120ZM167.70 104.40L167.70 104.40Q171.78 104.40 174.12 101.85Q176.46 99.30 176.46 95.16L176.46 95.16L176.46 89.88Q176.46 85.74 174.12 83.19Q171.78 80.64 167.70 80.64L167.70 80.64Q166.08 80.64 164.61 81.09Q163.14 81.54 162.06 82.32Q160.98 83.10 160.35 84.21Q159.72 85.32 159.72 86.58L159.72 86.58L159.72 98.10Q159.72 99.60 160.35 100.77Q160.98 101.94 162.06 102.75Q163.14 103.56 164.61 103.98Q166.08 104.40 167.70 104.40ZM199.08 108L194.82 108Q192.30 108 191.01 106.59Q189.72 105.18 189.72 103.02L189.72 103.02L189.72 63.60L194.52 63.60L194.52 103.80L199.08 103.80L199.08 108ZM217.68 108.72L217.68 108.72Q214.50 108.72 211.95 107.58Q209.40 106.44 207.57 104.31Q205.74 102.18 204.75 99.21Q203.76 96.24 203.76 92.52L203.76 92.52Q203.76 88.86 204.75 85.86Q205.74 82.86 207.57 80.73Q209.40 78.60 211.95 77.46Q214.50 76.32 217.68 76.32L217.68 76.32Q220.80 76.32 223.26 77.46Q225.72 78.60 227.46 80.61Q229.20 82.62 230.13 85.38Q231.06 88.14 231.06 91.44L231.06 91.44L231.06 93.72L208.80 93.72L208.80 95.16Q208.80 97.14 209.43 98.85Q210.06 100.56 211.23 101.82Q212.40 103.08 214.11 103.80Q215.82 104.52 217.98 104.52L217.98 104.52Q220.92 104.52 223.11 103.14Q225.30 101.76 226.50 99.18L226.50 99.18L229.92 101.64Q228.42 104.82 225.24 106.77Q222.06 108.72 217.68 108.72ZM217.68 80.34L217.68 80.34Q215.70 80.34 214.08 81.03Q212.46 81.72 211.29 82.98Q210.12 84.24 209.46 85.95Q208.80 87.66 208.80 89.70L208.80 89.70L208.80 90.12L225.90 90.12L225.90 89.46Q225.90 85.32 223.65 82.83Q221.40 80.34 217.68 80.34ZM265.98 108L259.98 108Q257.46 108 256.17 106.59Q254.88 105.18 254.88 102.90L254.88 102.90L254.88 81.24L249.78 81.24L249.78 77.04L252.66 77.04Q254.22 77.04 254.79 76.41Q255.36 75.78 255.36 74.22L255.36 74.22L255.36 68.46L259.68 68.46L259.68 77.04L266.46 77.04L266.46 81.24L259.68 81.24L259.68 103.80L265.98 103.80L265.98 108ZM285.60 108.72L285.60 108.72Q282.42 108.72 279.87 107.58Q277.32 106.44 275.49 104.31Q273.66 102.18 272.67 99.21Q271.68 96.24 271.68 92.52L271.68 92.52Q271.68 88.86 272.67 85.86Q273.66 82.86 275.49 80.73Q277.32 78.60 279.87 77.46Q282.42 76.32 285.60 76.32L285.60 76.32Q288.72 76.32 291.18 77.46Q293.64 78.60 295.38 80.61Q297.12 82.62 298.05 85.38Q298.98 88.14 298.98 91.44L298.98 91.44L298.98 93.72L276.72 93.72L276.72 95.16Q276.72 97.14 277.35 98.85Q277.98 100.56 279.15 101.82Q280.32 103.08 282.03 103.80Q283.74 104.52 285.90 104.52L285.90 104.52Q288.84 104.52 291.03 103.14Q293.22 101.76 294.42 99.18L294.42 99.18L297.84 101.64Q296.34 104.82 293.16 106.77Q289.98 108.72 285.60 108.72ZM285.60 80.34L285.60 80.34Q283.62 80.34 282.00 81.03Q280.38 81.72 279.21 82.98Q278.04 84.24 277.38 85.95Q276.72 87.66 276.72 89.70L276.72 89.70L276.72 90.12L293.82 90.12L293.82 89.46Q293.82 85.32 291.57 82.83Q289.32 80.34 285.60 80.34ZM307.68 108L302.34 108L313.80 92.40L302.82 77.04L308.46 77.04L316.32 88.56L316.50 88.56L324.66 77.04L330.00 77.04L319.08 92.04L330.24 108L324.60 108L316.56 95.88L316.38 95.88L307.68 108ZM349.44 108L343.44 108Q340.92 108 339.63 106.59Q338.34 105.18 338.34 102.90L338.34 102.90L338.34 81.24L333.24 81.24L333.24 77.04L336.12 77.04Q337.68 77.04 338.25 76.41Q338.82 75.78 338.82 74.22L338.82 74.22L338.82 68.46L343.14 68.46L343.14 77.04L349.92 77.04L349.92 81.24L343.14 81.24L343.14 103.80L349.44 103.80L349.44 108Z"></path>
            </g>
        </g>
    </g>
    
    <!-- ITEM 2 -->
    <g>
        <defs>
            <clipPath id="clip-path-id-viewbox-item-2">
                <rect x="0.0" y="0.0" width="353.159912109375" height="108.0"/>
            </clipPath>
        </defs>
        <g transform="translate(475.0 380.0) rotate(0.0 153.5 18.0) scale(0.869294587164018 0.3333333333333333)">
            <g clip-path="url(#clip-path-id-viewbox-item-2)" transform="translate(-0.0 -0.0)">
                <path fill="black" stroke="black" d="M8.70 108Q6.84 108 5.82 106.95Q4.80 105.90 4.80 104.04L4.80 104.04L4.80 66L33 66L33 69.84L9.24 69.84L9.24 84.60L31.20 84.60L31.20 88.44L9.24 88.44L9.24 104.16L33 104.16L33 108L8.70 108ZM36.96 108L48.24 92.70L37.44 78.06L42.36 78.06L50.70 89.34L59.04 78.06L63.96 78.06L53.16 92.70L64.44 108L59.52 108L50.70 96.06L41.88 108L36.96 108ZM77.64 108.48Q73.26 108.48 70.65 106.20Q68.04 103.92 68.04 100.08L68.04 100.08L68.04 98.16Q68.04 94.38 70.74 92.10Q73.44 89.82 77.88 89.82L77.88 89.82L81.72 89.82Q83.70 89.82 85.80 90.42Q87.90 91.02 89.40 92.04L89.40 92.04L89.40 87.06Q89.40 84.54 87.84 82.95Q86.28 81.36 83.70 81.36L83.70 81.36L78.90 81.36Q76.32 81.36 74.76 82.56Q73.20 83.76 73.20 85.74L73.20 85.74L68.88 85.74Q68.88 82.08 71.64 79.83Q74.40 77.58 78.90 77.58L78.90 77.58L83.70 77.58Q88.14 77.58 90.87 80.19Q93.60 82.80 93.60 87.06L93.60 87.06L93.60 108L89.52 108L89.52 103.80Q88.14 105.96 85.89 107.22Q83.64 108.48 81.24 108.48L81.24 108.48L77.64 108.48ZM77.64 104.70L81.36 104.70Q84.18 104.70 86.40 102.96Q88.62 101.22 89.40 98.34L89.40 98.34L89.40 96.12Q88.20 94.98 86.07 94.29Q83.94 93.60 81.72 93.60L81.72 93.60L77.88 93.60Q75.42 93.60 73.89 94.86Q72.36 96.12 72.36 98.16L72.36 98.16L72.36 100.08Q72.36 102.18 73.80 103.44Q75.24 104.70 77.64 104.70L77.64 104.70ZM135.18 77.58Q139.14 77.58 141.45 80.13Q143.76 82.68 143.76 87.18L143.76 87.18L143.76 108L139.44 108L139.44 87.06Q139.44 84.42 138.24 82.92Q137.04 81.42 135.06 81.42L135.06 81.42L131.64 81.42Q129.06 81.42 127.38 83.16Q125.70 84.90 125.22 88.08L125.22 88.08L125.22 108L120.90 108L120.90 87.42Q120.90 84.60 119.79 83.01Q118.68 81.42 116.76 81.42L116.76 81.42L113.34 81.42Q110.88 81.42 109.02 83.58Q107.16 85.74 106.68 89.22L106.68 89.22L106.68 108L102.36 108L102.36 78.06L106.56 78.06L106.56 82.38Q107.76 80.10 109.56 78.84Q111.36 77.58 113.34 77.58L113.34 77.58L116.88 77.58Q119.40 77.58 121.23 78.81Q123.06 80.04 124.02 82.38L124.02 82.38Q125.40 79.98 127.32 78.78Q129.24 77.58 131.52 77.58L131.52 77.58L135.18 77.58ZM152.52 119.94L152.52 78.06L156.72 78.06L156.72 82.14Q157.98 80.10 160.05 78.84Q162.12 77.58 164.22 77.58L164.22 77.58L168.54 77.58Q173.34 77.58 176.31 80.64Q179.28 83.70 179.28 88.74L179.28 88.74L179.28 96.12Q179.28 101.70 176.25 105.09Q173.22 108.48 168.24 108.48L168.24 108.48L163.92 108.48Q162.06 108.48 160.02 107.43Q157.98 106.38 156.84 104.70L156.84 104.70L156.84 119.94L152.52 119.94ZM164.16 104.64L168.12 104.64Q171.24 104.64 173.10 102.30Q174.96 99.96 174.96 96.12L174.96 96.12L174.96 88.74Q174.96 85.44 173.16 83.43Q171.36 81.42 168.42 81.42L168.42 81.42L164.22 81.42Q161.70 81.42 159.66 83.37Q157.62 85.32 156.84 88.38L156.84 88.38L156.84 97.38Q157.26 100.56 159.30 102.60Q161.34 104.64 164.16 104.64L164.16 104.64ZM195.48 108Q191.04 108 189.12 106.11Q187.20 104.22 187.20 99.84L187.20 99.84L187.20 66L191.52 66L191.52 99.84Q191.52 102.12 192.45 103.14Q193.38 104.16 195.48 104.16L195.48 104.16L197.52 104.16L197.52 108L195.48 108ZM213.24 108.48Q208.20 108.48 205.14 105.51Q202.08 102.54 202.08 97.62L202.08 97.62L202.08 89.04Q202.08 83.88 205.14 80.73Q208.20 77.58 213.24 77.58L213.24 77.58L218.16 77.58Q222.96 77.58 225.90 80.64Q228.84 83.70 228.84 88.74L228.84 88.74L228.84 94.02L206.40 94.02L206.40 97.62Q206.40 100.74 208.29 102.69Q210.18 104.64 213.24 104.64L213.24 104.64L217.80 104.64Q220.80 104.64 222.66 102.99Q224.52 101.34 224.52 98.58L224.52 98.58L228.72 98.58Q228.72 103.02 225.72 105.75Q222.72 108.48 217.80 108.48L217.80 108.48L213.24 108.48ZM206.40 90.30L224.52 90.30L224.52 88.74Q224.52 85.44 222.78 83.43Q221.04 81.42 218.16 81.42L218.16 81.42L213.24 81.42Q210.18 81.42 208.29 83.52Q206.40 85.62 206.40 89.04L206.40 89.04L206.40 90.30ZM263.76 108Q259.02 108 256.95 105.96Q254.88 103.92 254.88 99.24L254.88 99.24L254.88 81.90L249.60 81.90L249.60 78.06L254.88 78.06L254.88 69L259.20 69L259.20 78.06L267 78.06L267 81.90L259.20 81.90L259.20 99.24Q259.20 101.88 260.25 103.02Q261.30 104.16 263.76 104.16L263.76 104.16L267 104.16L267 108L263.76 108ZM283.92 108.48Q278.88 108.48 275.82 105.51Q272.76 102.54 272.76 97.62L272.76 97.62L272.76 89.04Q272.76 83.88 275.82 80.73Q278.88 77.58 283.92 77.58L283.92 77.58L288.84 77.58Q293.64 77.58 296.58 80.64Q299.52 83.70 299.52 88.74L299.52 88.74L299.52 94.02L277.08 94.02L277.08 97.62Q277.08 100.74 278.97 102.69Q280.86 104.64 283.92 104.64L283.92 104.64L288.48 104.64Q291.48 104.64 293.34 102.99Q295.20 101.34 295.20 98.58L295.20 98.58L299.40 98.58Q299.40 103.02 296.40 105.75Q293.40 108.48 288.48 108.48L288.48 108.48L283.92 108.48ZM277.08 90.30L295.20 90.30L295.20 88.74Q295.20 85.44 293.46 83.43Q291.72 81.42 288.84 81.42L288.84 81.42L283.92 81.42Q280.86 81.42 278.97 83.52Q277.08 85.62 277.08 89.04L277.08 89.04L277.08 90.30ZM302.52 108L313.80 92.70L303.00 78.06L307.92 78.06L316.26 89.34L324.60 78.06L329.52 78.06L318.72 92.70L330.00 108L325.08 108L316.26 96.06L307.44 108L302.52 108ZM346.56 108Q341.82 108 339.75 105.96Q337.68 103.92 337.68 99.24L337.68 99.24L337.68 81.90L332.40 81.90L332.40 78.06L337.68 78.06L337.68 69L342 69L342 78.06L349.80 78.06L349.80 81.90L342 81.90L342 99.24Q342 101.88 343.05 103.02Q344.10 104.16 346.56 104.16L346.56 104.16L349.80 104.16L349.80 108L346.56 108Z"></path>
            </g>
        </g>
    </g>
    
</svg>